<?xml version="1.0" encoding="utf-8"?>
<!-- Generator: Adobe Illustrator 27.9.0, SVG Export Plug-In . SVG Version: 6.00 Build 0)  -->
<svg version="1.1" id="Layer_1" xmlns="http://www.w3.org/2000/svg" xmlns:xlink="http://www.w3.org/1999/xlink" x="0px" y="0px"
	 viewBox="0 0 1920 2652" style="enable-background:new 0 0 1920 2652;" xml:space="preserve">
<style type="text/css">
	.st0{fill:#292929;}
	.st1{fill:#CECECE;}
	.st2{fill:#F9F9F9;}
	.st3{fill:#F3F3F3;}
	.st4{fill:#F2F2F2;}
	.st5{fill:#EAEAEA;}
	.st6{fill:#E5E5E5;}
	.st7{fill:#E7E7E7;}
	.st8{fill:#E6E6E6;}
	.st9{fill:#2A2A2A;}
	.st10{fill:#303030;}
	.st11{fill:#2C2C2C;}
</style>
<path class="st0" d="M1.4,2044.2c0-474.5,0-949,0.4-1424.4c0.9-3.7,1.3-6.5,2-9.9c3.1-32.6,12.3-62.8,26.6-91.4
	c15.9-31.7,37.1-59.5,63.9-82.9c41.1-35.9,88.4-58.1,142.6-65.6c3.6-0.5,7.1-1.7,10.7-2.6c474,0,948,0,1423.1,0.4
	c3.7,0.6,6.4,0.7,9.6,1c5.3,0.7,10.1,1.1,14.8,1.9c30.3,5.3,59.1,14.9,86.1,29.8c19.9,11,38.3,24.1,54.8,39.6
	c26.8,25.1,48.2,54.2,63.1,87.9c10.7,24.3,18.9,49.3,21,76c0.1,0.8,0.9,1.5,1.3,2.2c0,481.3,0,962.5-0.5,1444.7
	c-1.8,8.7-2.5,16.7-4.3,24.3c-13.4,57.5-42,106-86.4,145.1c-39.3,34.6-84.7,56-136.4,64.4c-3.4,0.5-6.6,1.7-9.9,2.6
	c-479.3,0-958.6,0-1438.9-0.5c-6.2-1.2-11.5-1.7-16.7-2.6c-27.5-4.5-53.6-13.3-78.4-26.1c-30.9-16-57.8-37.2-80.7-63.4
	c-16.1-18.4-29.7-38.5-40.2-60.6c-13.2-27.8-22.2-56.8-25.1-87.6C3.9,2045.8,2.3,2045,1.4,2044.2 M932.2,804.2
	c-0.4,0.6-0.8,1.2-1.2,1.8c-103.2,177.9-206.4,355.7-309.7,533.6c-5.2,8.9-5.2,8.9-15.3,10.6c1.4,2.9,2.7,5.6,4.1,8.6
	c-2.7,4.7-5.3,9.5-8.4,14.9c3.3,0.2,5.9,0.7,8.4,0.5c6.4-0.7,11.3,0.9,13.8,7.4c0.1,0.2,0.7,0.3,1.9,0.6c1-8.3,7-8,13.4-8
	c28.7,0.3,57.4,0.4,86.1,0.4c185.8-0.1,371.6-0.2,557.4-0.3c3.9,0,8.1-0.8,11.5,0.5c2.7,1,4.3,4.7,6.5,7.5c0.7-0.9,1.4-1.6,1.7-2.4
	c1.7-4.5,4.8-6.1,9.6-5.6c3.5,0.3,7.1-0.2,11.2-0.4c-3.1-5.5-5.8-10.5-8.4-15.1c1.6-3.1,2.8-5.6,4.3-8.7c-3.7-0.3-6.7-0.6-9.9-0.8
	c-1.2-1.9-2.3-3.7-3.4-5.6c-82.5-142.2-165-284.4-247.6-426.6c-22.4-38.6-44.9-77.1-67.6-116.6c-4.7-8.1-9.3-16.3-14.1-24.3
	c-4.6-7.9-8.8-16.1-14.6-24.4C951.9,769.6,942.3,786.5,932.2,804.2 M937,1641.3c1.6-16.4,1.2-32.8-0.3-49.1
	c-2-22-6.2-43.4-15.9-63.4c-10.8-22.3-27.1-39.1-50.2-48.7c-10.3-4.3-21.2-6.5-32.3-7.2c-42.4-2.6-76.6,12-99.8,48.5
	c-5.3,8.3-9.3,17.4-12.9,26.6c-8.6,21.8-11.4,44.7-11.8,68c-0.5,28.8,1.8,57.3,11.6,84.8c8.1,22.7,20.9,41.8,41.8,54.5
	c17.4,10.6,36.6,14.3,56.8,14c41.2-0.5,72.1-18.6,92.4-54.3C929.1,1692.7,935,1668.2,937,1641.3 M1293.8,1632.7
	c20.4,0,40.8,0,61.8,0c0,44.6,0,88.2,0,132.2c11.9,0,23.2,0,34.5,0c1.4,0,2.8-0.1,4.3-0.2c0-96.3,0-192.1,0-288
	c-13.2,0-25.8,0-39.1,0c0,40.6,0,80.8,0,121.3c-40.5,0-80.5,0-121.3,0c0-40.6,0-81,0-121.2c-13.5,0-26.2,0-38.9,0
	c0,96.2,0,191.8,0,287.8c13,0,25.7,0,39.2,0c0-44.1,0-87.8,0-131.9C1254.2,1632.7,1273.3,1632.7,1293.8,1632.7 M556,1741.1
	c2.7,7.9,5.3,15.8,7.9,23.5c18.2,0,35.8,0,53.5,0c32.6-96,65.1-191.8,97.8-288c-14.4,0-28,0-42.2,0
	c-26.6,82.9-53.2,165.8-80.2,250.1c-26.9-84.4-53.4-167.4-79.7-250c-15.2,0-29.6,0-44.3,0c0.4,1.9,0.7,3.3,1.1,4.6
	C498.4,1567.6,527.1,1653.8,556,1741.1 M968,1476.3c-4.3,0-8.6,0-13.1,0c0,11.4,0,22.1,0,33.5c28.6,0,56.6,0,85.3,0
	c0,85.3,0,169.9,0,254.8c13.5,0,26.4,0,40.1,0c0-85.1,0-169.9,0-255.2c28.7,0,56.6,0,84.8,0c0-11.2,0-21.9,0-33.1
	C1099.7,1476.3,1034.6,1476.3,968,1476.3 M703.4,1885.7c-2.3-4.1-4.6-8.3-7-12.5c3.2-2.1,5.9-3.7,8.4-5.6
	c9.2-7.5,10.1-20.8,2.1-29.5c-4.2-4.6-9.6-6.5-15.5-6.7c-13.5-0.3-27-0.1-40.5-0.1c-1,0-1.9,0.8-2.9,1.3c2.5,1.9,4.9,2.6,7.4,3
	c3.7,0.5,5.5,2.6,5.8,6.2c0.1,1.4,0.2,2.9,0.2,4.3c0,16.6,0.1,33.3,0,49.9c0,5.2-0.7,10.5-1,15.9c-2.6,0.6-4.7,1.1-6.7,1.6
	c-2.1,0.5-4.8-0.5-6.2,2.9c12.9,0,25.3,0,37.7,0c-2.5-2.1-5.1-3-7.8-3.8c-2.6-0.8-4.3-2.3-4.3-5.1c0-10.8,0-21.6,0-32.3
	c10.8-1.3,11.3-1.1,16,7.5c2.9,5.3,5.8,10.6,8.7,15.8c3.4,6.1,6.8,12.1,9.9,17.5c8.4,0,16,0,23.5,0c-0.7-2-1.9-3.2-3.2-3.4
	c-6.5-1-11-4.6-14.3-10C710.4,1897.4,707.2,1892,703.4,1885.7 M897,1902.2c-1.8,0.6-3.7,1.1-5.5,1.9c-6.6,2.7-7,6.6-1.2,11
	c2.2,1.7,4.6,3,7.3,4.8c-3.3,2.2-6.2,3.8-8.9,5.8c-9.4,7.3-8.8,16,1.6,21.7c2.3,1.3,4.8,2.2,7.4,2.8c8.1,2,16.4,1.9,24.3-0.5
	c4.7-1.4,9.4-3.8,13.3-6.9c5-4,6.9-9.7,5.1-16.2c-1.9-6.6-6.6-9.9-13-11c-2.6-0.5-5.3-0.4-7.9-0.7c-6.2-0.7-12.4-1.4-18.6-2.5
	c-2.3-0.4-4.3-2.2-8-4.2c4.2-2.1,6.5-3.8,9.1-4.4c3.5-0.8,7.1-0.9,10.7-1.2c13-1.1,21.2-12.2,18.4-24.8c-0.3-1.3-0.3-2.7-0.4-4.1
	c4.4,0.5,8.4,1,12.4,1.5c0.5-6.2,0.5-6.6-4.1-6.4c-6.7,0.3-12.7-1-18.6-4.4c-6.4-3.7-13.5-3.3-20.3-0.5
	c-14.2,5.9-17.2,24.6-5.6,33.8C896.1,1898.6,897,1900.3,897,1902.2 M827.5,1866.3c-2.6,2.9-7.8,2.3-9.6,7c1.2,0.5,2,1.1,2.8,1.2
	c6.9,0.7,6.5,3,6.7,8.1c0.3,8.2,0.2,16.4,0.2,24.6c0,1.6-0.6,3.2-0.8,4.3c-3.4,2.4-8.1,0.5-10.7,5.3c5.3,0,9.8,0,14.2,0
	c4.6,0,9.2-0.3,13.7-0.1c4.6,0.2,9.1-0.8,13.9,0.1c4.4,0.9,9.1,0.2,13.7-0.1c4.3-0.3,8.8,1.6,13-0.8c-0.4-0.9-0.5-1.5-0.9-1.7
	c-0.8-0.5-1.7-0.9-2.6-1.2c-6.5-2.5-6.5-2.5-6.5-9.1c0-13.5,0.1-27,0.1-40.5c0-1.9-0.4-3.9-0.8-7c-4.8,5-8.3,9.5-14.2,10.2
	c-5.8-5.9-9.3-6.1-15.4-0.9c-2.5,2.1-4.7,4.5-7.8,7.6c-0.5-5.3-0.9-9.7-1.4-15.5C832.3,1861.1,830.3,1863.4,827.5,1866.3
	 M1277.6,1912.8c-2.5-0.8-5-1.6-8.2-2.6c0-3.7,0.1-7.2,0-10.8c-0.2-8.2,0-16.4-0.7-24.5c-0.6-8-6.4-13.4-14.5-12.8
	c-5.1,0.3-10.2,2.5-15.1,4.1c-2.2,0.7-4.2,2.1-6.4,3.3c-0.6-3.3-1.1-6.1-1.7-8.9c-5.6,4.9-10.5,9.3-15.6,13.8
	c0.9,0.5,1.8,1.4,2.8,1.6c3.5,0.8,4.7,3.2,4.7,6.3c0.1,7.9,0.1,15.9,0.1,23.8c0,3.9-1.4,6.4-5.8,6.5c-1.8,0-4,0.3-3.9,3.1
	c6.5,1.5,23.6,1.4,30.3-0.7c-4.6-1.7-7.9-3-11.8-4.4c-0.2-10.7-0.4-21.2-0.6-31.8c0-1.1,0.4-2.4,1-3.4c3-4.8,13.3-8.3,19.5-6.8
	c6.1,1.6,8.7,5.4,8.9,13.9c0.2,7.2,0,14.5,0.1,21.7c0.1,6.8,0.1,6.8-6.8,8.3c-2,0.4-3.9,0.7-2.9,4.2c8.2,0,16.6,0.1,25-0.1
	C1276.9,1916.5,1277.6,1914.8,1277.6,1912.8 M1140.8,1911.2c-0.5-2.2-1.5-4.5-1.5-6.7c-0.1-13.3,0-26.5,0-39.8
	c0-2.3-0.2-4.6-0.4-8.1c-2.3,2-3.4,3.1-4.6,4.1c-3.8,3.2-7.1,8-13.2,3.4c-1.1-0.8-3.3-0.1-5-0.1c-3.3,0-6.6,0-10.2,0
	c-1.3-4.7,0.8-9.7-2-15c-2.3,4.2-3.8,8.1-6.3,11c-2.7,3.1-6.4,5.4-10.3,8.6c3.3,0.4,5.9,0.7,8.9,1.1c0,2.7,0,5.1,0,7.4
	c0,9.2-0.2,18.3-0.1,27.5c0.2,10.9,3.8,14.2,14.7,13.7c1,0,1.9-0.2,2.9-0.2c9.6-0.5,19.2-0.9,28.8-1.4c2-0.1,4.1-0.2,6.7-0.3
	C1147.5,1912.6,1144.2,1913,1140.8,1911.2 M790.4,1894.3c0,4.3-0.1,8.7,0,13c0.1,3.1-1.3,4.9-4.3,5.8c-1.9,0.6-3.8,1.3-5.7,2
	c0.1,0.6,0.1,1.2,0.2,1.8c3.7,0,7.4,0,11.1,0c3.9,0,7.7,0.1,11.6-0.2c3.4-0.3,7.3,1.7,10.6-1.2c-0.7-0.8-0.9-1.4-1.3-1.4
	c-14.9-1.7-13.5-3.9-13.5-17.4c0-2.4,0-4.8,0-7.2c0-6.2,0-12.4,0-19c5-0.3,9.3-0.5,13.6-0.7c3.9-0.2,4.2-2.2,2.9-5.4
	c-5.4-0.3-10.6-0.6-16.4-0.9c0-6.3-0.3-12.3,0.1-18.2c0.5-8.8,6.5-12.8,15-10.2c2.8,0.8,5.5,1.8,8.3,2.3c2.7,0.5,5.5,0.1,5.9-3.6
	c0.4-3.1-1.8-4.2-4.2-5c-1.1-0.4-2.4-0.5-3.6-0.6c-14.1-1.2-25.2,6.7-28.9,20.7c-0.8,3.2-1.4,6.6-1.5,10c-0.1,4.1-1.6,6.8-5.6,8.3
	c-1.5,0.6-2.8,1.8-5.3,3.6c4.5,0.8,7.2,1.2,10.8,1.8C790.4,1879.5,790.4,1886.2,790.4,1894.3 M1204.1,1873.3
	c-8.3-10.4-19.1-13.1-31.7-10.4c-18.4,3.9-27.7,25-18.4,41.4c9.6,16.9,30.3,17,41.7,10.4C1209.7,1906.3,1215,1889.4,1204.1,1873.3
	 M1038.6,1909.3c0.5,7.9,2,9.7,9.5,9.1c3.9-0.3,7.8-1.9,11.5-3.4c2.4-1,4.4-2.9,7-4.7c1.8,6.1,5.4,9.2,11.8,8.2
	c4.3-0.7,6.9-3.8,7.8-9.6c-0.7,0.4-1.3,0.7-1.9,0.9c-1.8,0.8-3.8,2.5-5.5,2.2c-2.8-0.5-3-3.3-2.9-5.8c0-1,0.1-1.9,0.1-2.9
	c0-9.4,0.1-18.8,0-28.2c0-5.6-2.5-9.7-7.7-12c-10.3-4.4-28.6,2.8-30.5,19.7c5.9,1.1,7.2,0.5,8.9-4.1c0.7-2,1.1-4.2,2.1-6.1
	c2.1-4.1,7.3-6.6,11.5-5.8c4.4,0.8,6.6,3.6,7.1,9.5c0.2,2.8,0,5.7,0,8.8c-3.7,1.7-7.2,3.3-10.6,5
	C1048.8,1894.2,1042.2,1899.6,1038.6,1909.3 M752.2,1882.3c7.4,0,14.8,0,22.1,0c0.9-14-14.7-27.1-32.9-17.2
	c-12.1,6.5-17.5,24.3-12.2,38.2c2.7,7.2,7.7,12.4,15.1,14.4c10.8,2.8,20.5,0.2,29-7.1c1.4-1.2,3-2.7,0.9-5.2
	c-9.1,7.5-19,10.5-29.4,2.7c-7.1-5.4-9.9-16.6-7-25.7C742.1,1882.3,746.4,1882.3,752.2,1882.3 M981,1911.9
	c-18.6,2.1-29.6-10.1-25.7-29.6c6,0,12.2,0,18.4,0c6.2,0,12.3,0,18.5,0c-1.3-17.4-17.5-25.7-32.4-17.6c-15,8.2-19.8,32.3-8.8,45.4
	c2.4,2.8,5.8,5.2,9.2,6.7c9.6,4.3,24.3,0.9,31.4-6.8c0.9-1,1.2-2.7,2.2-5.2C989.1,1907.6,985.6,1909.5,981,1911.9 M1014.7,1887.5
	c0-0.5,0-1,0-1.4c-0.3-5.2,2.2-9.3,5.6-12.9c3-3.1,6.3-0.3,9.5,0.2c0.7,0.1,1.4,0.2,2.2,0.2c3.9-0.1,5.7-2.3,5.2-6.1
	c-0.6-3.8-4.1-6.6-7.9-5.2c-3.3,1.2-6.2,3.5-9,5.7c-1.8,1.3-3.2,3.2-5.5,5.6c-0.5-5.6-0.9-10-1.4-15.6c-3.4,3.7-5.8,6.3-8.2,8.8
	c-2.5,2.6-7.4,1.9-8.9,6.4c0.9,0.6,1.4,1.2,2,1.3c7.3,0.6,7.2,2.5,7.5,8.9c0.4,7.9,0.2,15.9,0.1,23.8c0,1.6-0.6,3.2-0.8,4.3
	c-3.4,2.4-8.1,0.5-10.4,4.7c9.1,1.5,32.4,0.6,36.8-1.5c-1.4-0.8-2.5-1.8-3.7-2c-2.4-0.4-4.8-0.5-7.2-0.6c-3.9-0.1-5.6-1.9-5.5-5.9
	C1015.1,1900.4,1014.9,1894.6,1014.7,1887.5 M1128.3,1836c0.8,2.4,2.3,4.1,5.1,4.3c3.7,0.3,7-2.3,6.9-5.5c-0.1-3-3-5.3-6.5-5.2
	C1130.3,1829.8,1128.5,1831.6,1128.3,1836 M864.1,1834.9c0.2,0.9,0.1,2,0.6,2.7c2.1,3,5.9,3.6,8.7,1.6c2.5-1.7,3.2-4.4,1.8-6.8
	c-1.7-2.8-5.8-3.8-8.8-2C865.4,1831.2,864.9,1832.7,864.1,1834.9z"/>
<path class="st0" d="M246.9,367.4c-2.9,0.9-6.4,2.1-10,2.6c-54.2,7.5-101.5,29.7-142.6,65.6c-26.8,23.4-48,51.2-63.9,82.9
	c-14.3,28.6-23.5,58.8-27,91.3c-1.1,0.7-1.5,0.7-2,0.8c0-81,0-162,0-243.3C83,367.4,164.6,367.4,246.9,367.4z"/>
<path class="st0" d="M1.4,2044.9c0.9,0.2,2.4,0.9,2.5,1.8c2.9,30.8,11.9,59.8,25.1,87.6c10.5,22.1,24.1,42.2,40.2,60.6
	c22.9,26.2,49.8,47.5,80.7,63.4c24.7,12.8,50.9,21.5,78.4,26.1c5.2,0.9,10.5,1.4,16,2.6c-80.7,0.5-161.6,0.5-242.9,0.5
	C1.4,2206.8,1.4,2126.2,1.4,2044.9z"/>
<path class="st0" d="M1921.4,605.7c-0.5,0-1.3-0.7-1.3-1.5c-2-26.7-10.2-51.8-21-76c-14.9-33.7-36.3-62.8-63.1-87.9
	c-16.6-15.5-34.9-28.6-54.8-39.6c-27-14.9-55.8-24.5-86.1-29.8c-4.7-0.8-9.5-1.2-14.9-2.3c-0.6-0.5-0.6-1.1-0.6-1.1
	c80.5,0,161,0,241.8,0C1921.4,446.6,1921.4,525.8,1921.4,605.7z"/>
<path class="st0" d="M1684.7,2287.4c2.6-0.9,5.9-2.1,9.2-2.6c51.6-8.4,97.1-29.8,136.4-64.4c44.4-39.1,72.9-87.6,86.4-145.1
	c1.8-7.7,2.5-15.6,4.3-23.7c0.5,78.3,0.5,156.9,0.5,235.8C1842.7,2287.4,1764,2287.4,1684.7,2287.4z"/>
<path class="st1" d="M1.4,611.3c0.5-0.7,1-0.8,1.8-0.8c-0.1,2.8-0.5,5.6-1.4,8.6C1.4,616.9,1.4,614.4,1.4,611.3z"/>
<path class="st1" d="M1679,367.4c0.6,0,0.6,0.7,0.7,1c-2.7,0.2-5.3,0-8.4-0.5C1673.4,367.4,1675.9,367.4,1679,367.4z"/>
<path class="st2" d="M991.2,801.3c22.4,38.5,44.9,77.1,67.3,115.6c82.5,142.2,165,284.4,247.6,426.6c1.1,1.9,2.2,3.7,3.4,5.6
	c3.2,0.3,6.2,0.5,9.9,0.8c-1.5,3-2.8,5.6-4.3,8.7c2.6,4.6,5.3,9.6,8.4,15.1c-4.1,0.2-7.7,0.7-11.2,0.4c-4.8-0.5-7.9,1.1-9.6,5.6
	c-0.3,0.8-1,1.5-1.7,2.4c-2.2-2.7-3.9-6.4-6.5-7.5c-3.4-1.3-7.6-0.5-11.5-0.5c-185.8,0.1-371.6,0.2-557.4,0.3
	c-28.7,0-57.4-0.1-86.1-0.4c-6.5-0.1-12.4-0.3-13.4,8c-1.2-0.4-1.8-0.4-1.9-0.6c-2.5-6.4-7.3-8.1-13.8-7.4c-2.5,0.3-5.2-0.2-8.4-0.5
	c3-5.4,5.7-10.2,8.4-14.9c-1.4-3-2.7-5.7-4.1-8.6c10.2-1.7,10.2-1.7,15.3-10.6C724.6,1161.8,827.8,983.9,931,806
	c0.4-0.6,0.8-1.2,2-2.3c1.6-0.4,2.4-0.3,3,0.2c-61.9,116.7-123.4,233-185.5,349.1c-33.7,63.1-68.4,125.8-102.6,188.7
	c-1.2,2.1-3.4,4.1-2.5,7.3c211.6-1.9,423-2.1,635.6,0.2c-1.7-3.4-2.8-5.7-4.1-8c-12.1-22-24.5-43.8-36.3-65.9
	c-66.6-124.5-133.1-249.1-199.6-373.7c-17.7-33.2-35.3-66.4-52.2-99.8C990.1,801.5,990.7,801.4,991.2,801.3z"/>
<path class="st3" d="M937,1642c-1.9,26.2-7.9,50.7-20.6,73.1c-20.3,35.7-51.3,53.7-92.4,54.3c-20.2,0.3-39.3-3.4-56.8-14
	c-21-12.8-33.8-31.9-41.8-54.5c-9.8-27.4-12-55.9-11.6-84.8c0.4-23.3,3.2-46.2,11.8-68c3.6-9.1,7.7-18.3,12.9-26.6
	c23.2-36.5,57.5-51.2,99.8-48.5c11.1,0.7,22,2.9,32.3,7.2c23.2,9.6,39.4,26.3,50.2,48.7c9.7,20,14,41.5,15.9,63.4
	C938.2,1608.6,938.6,1625,937,1642 M876,1532.5c-21.4-32.4-79.1-37.3-103.3,6.9c-4.6,8.4-8.5,17.4-11,26.6
	c-9.5,34.8-9,70.1-2.1,105.3c2.9,14.6,8.1,28.2,16.9,40.3c22.1,30.6,68.8,30.5,91.1,6.5c13-13.9,20.1-30.4,24.2-48.5
	c6.4-28.3,6.2-57,2.4-85.6C891.9,1566,887.1,1548.6,876,1532.5z"/>
<path class="st3" d="M1293,1632.7c-19.8,0-38.8,0-58.7,0c0,44.1,0,87.9,0,131.9c-13.5,0-26.2,0-39.2,0c0-96,0-191.7,0-287.8
	c12.7,0,25.4,0,38.9,0c0,40.3,0,80.6,0,121.2c40.8,0,80.7,0,121.3,0c0-40.5,0-80.7,0-121.3c13.3,0,25.9,0,39.1,0
	c0,95.8,0,191.7,0,288c-1.5,0.1-2.9,0.2-4.3,0.2c-11.3,0-22.6,0-34.5,0c0-44.1,0-87.6,0-132.2
	C1334.5,1632.7,1314.1,1632.7,1293,1632.7z"/>
<path class="st3" d="M555.8,1740.5c-28.8-86.7-57.4-172.9-86-259.1c-0.4-1.3-0.7-2.8-1.1-4.6c14.7,0,29.1,0,44.3,0
	c26.3,82.6,52.8,165.6,79.7,250c27.1-84.3,53.6-167.2,80.2-250.1c14.2,0,27.9,0,42.2,0c-32.7,96.2-65.2,191.9-97.8,288
	c-17.7,0-35.3,0-53.5,0C561.3,1756.9,558.7,1749,555.8,1740.5z"/>
<path class="st4" d="M968.7,1476.3c65.8,0,130.9,0,196.5,0c0,11.2,0,21.9,0,33.1c-28.2,0-56.1,0-84.8,0c0,85.3,0,170.1,0,255.2
	c-13.7,0-26.6,0-40.1,0c0-84.9,0-169.5,0-254.8c-28.7,0-56.8,0-85.3,0c0-11.4,0-22.1,0-33.5C959.4,1476.3,963.7,1476.3,968.7,1476.3
	z"/>
<path class="st5" d="M703.7,1886.2c3.5,5.8,6.7,11.2,10,16.5c3.3,5.4,7.8,9,14.3,10c1.3,0.2,2.4,1.4,3.2,3.4c-7.6,0-15.1,0-23.5,0
	c-3.1-5.4-6.5-11.4-9.9-17.5c-2.9-5.3-5.8-10.6-8.7-15.8c-4.7-8.6-5.2-8.8-16-7.5c0,10.7,0,21.5,0,32.3c0,2.8,1.7,4.3,4.3,5.1
	c2.7,0.8,5.3,1.8,7.8,3.8c-12.4,0-24.8,0-37.7,0c1.4-3.3,4.1-2.4,6.2-2.9c2.1-0.5,4.1-1,6.7-1.6c0.4-5.4,1-10.6,1-15.9
	c0.1-16.6,0.1-33.3,0-49.9c0-1.4-0.1-2.9-0.2-4.3c-0.3-3.6-2.2-5.6-5.8-6.2c-2.5-0.3-4.9-1-7.4-3c1-0.4,1.9-1.3,2.9-1.3
	c13.5-0.1,27-0.2,40.5,0.1c5.9,0.1,11.4,2.1,15.5,6.7c8,8.7,7.1,22-2.1,29.5c-2.4,2-5.1,3.5-8.4,5.6
	C698.8,1877.4,701.1,1881.6,703.7,1886.2 M697.4,1862.9c3.7-7.4,3.5-14.7-1.9-21c-5.8-6.8-13.8-7.8-22.6-7c0,8.7,0,16.6,0,24.5
	c0,3.8,0,7.6,0,12.1C682.2,1870.7,690.9,1871.9,697.4,1862.9z"/>
<path class="st6" d="M897.5,1901.9c-0.6-1.6-1.5-3.3-2.8-4.3c-11.6-9.2-8.6-27.9,5.6-33.8c6.8-2.8,13.9-3.2,20.3,0.5
	c5.9,3.4,11.9,4.7,18.6,4.4c4.6-0.2,4.6,0.1,4.1,6.4c-4-0.5-8-1-12.4-1.5c0.1,1.4,0.1,2.8,0.4,4.1c2.8,12.7-5.4,23.7-18.4,24.8
	c-3.6,0.3-7.3,0.4-10.7,1.2c-2.6,0.6-5,2.3-9.1,4.4c3.6,2,5.7,3.7,8,4.2c6.1,1.1,12.4,1.8,18.6,2.5c2.6,0.3,5.3,0.2,7.9,0.7
	c6.4,1.2,11.1,4.4,13,11c1.9,6.5-0.1,12.3-5.1,16.2c-3.8,3.1-8.6,5.5-13.3,6.9c-7.9,2.4-16.2,2.5-24.3,0.5c-2.5-0.6-5.1-1.6-7.4-2.8
	c-10.3-5.7-11-14.4-1.6-21.7c2.6-2,5.5-3.7,8.9-5.8c-2.6-1.7-5.1-3.1-7.3-4.8c-5.8-4.4-5.4-8.3,1.2-11
	C893.3,1903.3,895.2,1902.8,897.5,1901.9 M911.5,1921.1c-5.9-0.4-11.5,0-16.3,4c-7,5.9-6.8,14.4,0.9,19.3c2.6,1.6,5.7,2.8,8.7,3.2
	c9.4,1.5,18.3,0.1,25.8-6.2c3.2-2.7,5.4-6.3,4.3-10.8c-1.1-4.7-4.4-7.4-9.1-8.1C921.5,1921.8,917.1,1921.6,911.5,1921.1 M897,1886.2
	c0.5,1.9,0.7,3.8,1.5,5.6c2.1,5.1,6.6,7.9,11.9,7.7c5.4-0.2,9.2-3,10.9-8c2.3-6.6,2.3-13.3-0.9-19.6c-2.4-4.8-7.6-7.3-12.6-6.7
	c-5.3,0.6-8.9,3.9-10,9.8C897.1,1878.3,897.1,1881.7,897,1886.2z"/>
<path class="st7" d="M827.9,1866c2.4-2.6,4.4-4.9,7.3-8.1c0.5,5.8,0.9,10.1,1.4,15.5c3.1-3,5.3-5.5,7.8-7.6c6.1-5.2,9.6-5,15.4,0.9
	c5.9-0.6,9.4-5.2,14.2-10.2c0.4,3.2,0.8,5.1,0.8,7c0,13.5-0.1,27-0.1,40.5c0,6.6,0,6.6,6.5,9.1c0.9,0.3,1.8,0.7,2.6,1.2
	c0.3,0.2,0.4,0.8,0.9,1.7c-4.3,2.4-8.7,0.5-13,0.8c-4.6,0.3-9.3,1-13.7,0.1c-4.7-0.9-9.3,0.1-13.9-0.1c-4.6-0.2-9.1,0-13.7,0.1
	c-4.5,0-9,0-14.2,0c2.6-4.8,7.3-2.8,10.7-5.3c0.2-1.1,0.8-2.7,0.8-4.3c0-8.2,0.2-16.4-0.2-24.6c-0.2-5.1,0.2-7.4-6.7-8.1
	c-0.9-0.1-1.7-0.7-2.8-1.2C819.7,1868.6,824.9,1869.2,827.9,1866 M836.6,1886.2c0.1,5,0.2,10.1,0.3,15.1c0.1,10.3-0.9,10.3,9.9,11.2
	c2.4,0.2,4.7,1.2,8,2.2c1.7-0.5,4.8-1,7.6-2.2c1.5-0.6,3.5-2.4,3.5-3.7c0.4-10.8,0.6-21.6,0.3-32.4c-0.1-4.5-4.3-6.6-8.1-4.2
	c-2.8,1.8-5.5,1.9-8.2,0.9c-7.1-2.8-8.4,0.2-10.9,4.6C837.8,1879.7,837.4,1882.4,836.6,1886.2z"/>
<path class="st8" d="M1277.9,1913.3c-0.3,1.4-1,3.2-1.8,3.2c-8.4,0.2-16.8,0.1-25,0.1c-1-3.5,0.9-3.8,2.9-4.2
	c6.9-1.5,6.9-1.5,6.8-8.3c-0.1-7.2,0-14.5-0.1-21.7c-0.2-8.4-2.8-12.3-8.9-13.9c-6.2-1.6-16.6,1.9-19.5,6.8c-0.6,1-1,2.3-1,3.4
	c0.1,10.6,0.4,21.1,0.6,31.8c3.8,1.4,7.2,2.7,11.8,4.4c-6.7,2.1-23.8,2.2-30.3,0.7c-0.1-2.8,2.1-3,3.9-3.1c4.4-0.1,5.8-2.6,5.8-6.5
	c-0.1-7.9,0-15.9-0.1-23.8c0-3.1-1.3-5.6-4.7-6.3c-1.1-0.2-2-1.1-2.8-1.6c5.1-4.5,10-8.8,15.6-13.8c0.5,2.8,1,5.6,1.7,8.9
	c2.2-1.2,4.2-2.6,6.4-3.3c5-1.6,10-3.8,15.1-4.1c8.1-0.5,13.9,4.8,14.5,12.8c0.6,8.1,0.5,16.3,0.7,24.5c0.1,3.6,0,7.1,0,10.8
	C1272.6,1911.3,1275.1,1912.1,1277.9,1913.3z"/>
<path class="st5" d="M1141.3,1911.5c2.9,1.4,6.2,1,8,5.1c-2.6,0.1-4.7,0.2-6.7,0.3c-9.6,0.5-19.2,0.9-28.8,1.4c-1,0-1.9,0.2-2.9,0.2
	c-10.9,0.5-14.6-2.8-14.7-13.7c-0.1-9.2,0-18.3,0.1-27.5c0-2.4,0-4.7,0-7.4c-3.1-0.4-5.6-0.7-8.9-1.1c3.9-3.2,7.6-5.4,10.3-8.6
	c2.5-2.9,4-6.8,6.3-11c2.8,5.4,0.7,10.3,2,15c3.6,0,6.9,0,10.2,0c1.7,0,3.9-0.7,5,0.1c6,4.6,9.4-0.2,13.2-3.4c1.2-1,2.4-2.1,4.6-4.1
	c0.2,3.5,0.4,5.8,0.4,8.1c0,13.3-0.1,26.5,0,39.8C1139.3,1906.8,1140.2,1909,1141.3,1911.5 M1130.5,1909.1c0.1-10.3,0.1-20.7,0.4-31
	c0.1-3.7-1.5-5.6-4.8-7.1c-6.8-2.9-13.5-1.7-20.8-1c0,12.7,0,24.9,0,37.1c0,0.5,0.2,0.9,0.3,1.4c1.2,4.3,2.9,5.5,7.2,5.5
	c5.1-0.1,9.8-3.2,15.2-1.8C1128.5,1912.2,1129.4,1910.9,1130.5,1909.1z"/>
<path class="st7" d="M790.4,1893.6c0-7.4,0-14.1,0-21c-3.6-0.6-6.4-1.1-10.8-1.8c2.6-1.8,3.8-3,5.3-3.6c4-1.5,5.4-4.2,5.6-8.3
	c0.1-3.3,0.6-6.7,1.5-10c3.7-14,14.8-21.8,28.9-20.7c1.2,0.1,2.4,0.2,3.6,0.6c2.4,0.8,4.6,1.9,4.2,5c-0.4,3.6-3.2,4-5.9,3.6
	c-2.8-0.5-5.5-1.5-8.3-2.3c-8.4-2.5-14.4,1.4-15,10.2c-0.3,5.9-0.1,11.9-0.1,18.2c5.7,0.3,11,0.6,16.4,0.9c1.3,3.2,1,5.2-2.9,5.4
	c-4.3,0.2-8.6,0.4-13.6,0.7c0,6.6,0,12.8,0,19c0,2.4,0,4.8,0,7.2c0,13.5-1.4,15.7,13.5,17.4c0.3,0,0.6,0.6,1.3,1.4
	c-3.3,2.9-7.2,0.9-10.6,1.2c-3.8,0.3-7.7,0.2-11.6,0.2c-3.7,0-7.4,0-11.1,0c-0.1-0.6-0.1-1.2-0.2-1.8c1.9-0.7,3.7-1.5,5.7-2
	c3-0.9,4.3-2.7,4.3-5.8C790.3,1903,790.4,1898.7,790.4,1893.6z"/>
<path class="st8" d="M1204.4,1873.7c10.6,15.7,5.3,32.6-8.7,40.9c-11.4,6.7-32.1,6.6-41.7-10.4c-9.3-16.4,0-37.5,18.4-41.4
	C1184.9,1860.2,1195.8,1862.9,1204.4,1873.7 M1161.2,1886.1c0.4,5.2,0.1,10.6,1.3,15.7c2,8.2,8.2,13.1,15.8,13.6
	c8.3,0.5,14.8-3.3,18.4-11.1c4.2-9.3,3.5-18.7-0.2-28c-2.8-6.9-8-10.9-15.4-11c-7.9-0.2-14,3.2-17.3,10.6
	C1162.5,1878.7,1162,1881.8,1161.2,1886.1z"/>
<path class="st8" d="M1038.8,1908.8c3.5-9.2,10-14.6,18-18.7c3.4-1.7,6.9-3.3,10.6-5c0-3.1,0.2-6,0-8.8c-0.5-5.9-2.7-8.8-7.1-9.5
	c-4.2-0.7-9.4,1.8-11.5,5.8c-1,1.9-1.3,4.1-2.1,6.1c-1.6,4.5-3,5.1-8.9,4.1c1.9-17,20.2-24.1,30.5-19.7c5.2,2.2,7.7,6.4,7.7,12
	c0,9.4,0,18.8,0,28.2c0,1,0,1.9-0.1,2.9c-0.1,2.5,0.1,5.4,2.9,5.8c1.7,0.3,3.7-1.4,5.5-2.2c0.6-0.3,1.1-0.6,1.9-0.9
	c-1,5.8-3.5,8.9-7.8,9.6c-6.3,1.1-9.9-2.1-11.8-8.2c-2.6,1.8-4.6,3.7-7,4.7c-3.7,1.5-7.6,3.1-11.5,3.4
	C1040.6,1919,1039.1,1917.3,1038.8,1908.8 M1055.3,1895.5c-2.3,3.1-5.1,5.8-6.6,9.2c-1.9,4.2,0.8,8.2,4.9,8.6
	c3.8,0.4,12.7-5,13.2-8.6c0.7-5,0.8-10.2,0-16.5C1062.5,1890.8,1059.3,1892.8,1055.3,1895.5z"/>
<path class="st6" d="M751.5,1882.3c-5.1,0-9.4,0-13.6,0c-3,9.2-0.1,20.4,7,25.7c10.4,7.8,20.3,4.8,29.4-2.7c2.1,2.5,0.5,4-0.9,5.2
	c-8.4,7.3-18.2,9.8-29,7.1c-7.5-1.9-12.4-7.1-15.1-14.4c-5.2-13.9,0.2-31.6,12.2-38.2c18.1-9.8,33.7,3.3,32.9,17.2
	C767,1882.3,759.6,1882.3,751.5,1882.3 M761.7,1879.2c1-1.1,2.9-2.1,3-3.2c0.2-4.1-1.8-7.3-5.4-9.4c-7.6-4.4-21.7,2.3-20.4,12.7
	C746,1879.3,753.2,1879.3,761.7,1879.2z"/>
<path class="st8" d="M981.6,1911.7c4-2.2,7.5-4.1,12.3-6.8c-1,2.5-1.2,4.2-2.2,5.2c-7.1,7.7-21.8,11-31.4,6.8
	c-3.4-1.5-6.8-3.9-9.2-6.7c-11-13.1-6.2-37.2,8.8-45.4c14.9-8.1,31.1,0.2,32.4,17.6c-6.2,0-12.4,0-18.5,0c-6.2,0-12.4,0-18.4,0
	C951.5,1901.8,962.5,1914.1,981.6,1911.7 M975.2,1865.8c-10.7-1.6-17.3,3-19,13.5c7.5,0,14.9,0.2,22.3-0.1c4-0.1,5.1-1.9,4-5.7
	C981.6,1870.2,979.7,1867.4,975.2,1865.8z"/>
<path class="st7" d="M1014.8,1888.2c0.1,6.5,0.3,12.2,0.2,18c-0.1,4,1.6,5.7,5.5,5.9c2.4,0.1,4.8,0.2,7.2,0.6c1.2,0.2,2.3,1.2,3.7,2
	c-4.4,2.1-27.7,3-36.8,1.5c2.3-4.2,7-2.3,10.4-4.7c0.2-1.1,0.8-2.7,0.8-4.3c0.1-7.9,0.2-15.9-0.1-23.8c-0.3-6.5-0.2-8.4-7.5-8.9
	c-0.6,0-1.1-0.7-2-1.3c1.5-4.4,6.4-3.7,8.9-6.4c2.4-2.6,4.8-5.2,8.2-8.8c0.5,5.6,0.9,10,1.4,15.6c2.3-2.4,3.7-4.3,5.5-5.6
	c2.9-2.1,5.8-4.4,9-5.7c3.7-1.4,7.3,1.4,7.9,5.2c0.5,3.8-1.3,6-5.2,6.1c-0.7,0-1.4-0.1-2.2-0.2c-3.2-0.5-6.5-3.4-9.5-0.2
	c-3.4,3.5-5.9,7.6-5.6,12.9C1014.7,1886.5,1014.7,1887,1014.8,1888.2z"/>
<path class="st1" d="M991,800.8c-0.4,0.6-0.9,0.7-2.5,0.7c-9.5-15-17-30.3-26.1-45.7c-2.2,4-3.7,6.9-5.4,9.9
	c-6.9,12.6-13.9,25.2-20.8,37.8c-0.8-0.1-1.5-0.1-2.9-0.1c9-16.9,18.6-33.8,28.9-51.9c5.8,8.4,10,16.5,14.6,24.4
	C981.6,784,986.2,792.2,991,800.8z"/>
<path class="st7" d="M1128.2,1835.5c0.3-3.8,2.1-5.7,5.5-5.8c3.6-0.2,6.4,2.1,6.5,5.2c0.1,3.3-3.2,5.8-6.9,5.5
	C1130.5,1840.1,1129.1,1838.4,1128.2,1835.5z"/>
<path class="st5" d="M864.1,1834.4c0.8-1.6,1.3-3.2,2.3-3.9c3-1.9,7.1-0.8,8.8,2c1.5,2.4,0.8,5.1-1.8,6.8c-2.8,2-6.6,1.3-8.7-1.6
	C864.2,1836.9,864.3,1835.8,864.1,1834.4z"/>
<path class="st0" d="M936,804c7.1-13.1,14.1-25.7,21-38.3c1.6-2.9,3.2-5.9,5.4-9.9c9.1,15.4,16.7,30.7,25.4,45.9
	c18,33.5,35.6,66.7,53.3,99.9c66.5,124.6,133,249.2,199.6,373.7c11.8,22.1,24.2,43.9,36.3,65.9c1.2,2.2,2.3,4.6,4.1,8
	c-212.6-2.3-424-2.1-635.6-0.2c-0.9-3.2,1.3-5.1,2.5-7.3c34.2-62.9,68.8-125.5,102.6-188.7C812.6,1037,874.1,920.7,936,804z"/>
<path class="st9" d="M876.3,1532.9c10.9,15.7,15.7,33.1,18,51.1c3.7,28.6,4,57.2-2.4,85.6c-4.1,18.1-11.2,34.6-24.2,48.5
	c-22.4,23.9-69,24.1-91.1-6.5c-8.8-12.1-14-25.8-16.9-40.3c-6.9-35.2-7.4-70.5,2.1-105.3c2.5-9.2,6.4-18.2,11-26.6
	C796.9,1495.2,854.6,1500,876.3,1532.9z"/>
<path class="st10" d="M697.1,1863.4c-6.2,8.6-14.9,7.3-24.2,8.2c0-4.5,0-8.3,0-12.1c0-7.9,0-15.8,0-24.5c8.9-0.8,16.8,0.1,22.6,7
	C700.8,1848.2,701.1,1855.5,697.1,1863.4z"/>
<path class="st10" d="M912.2,1921.1c5,0.5,9.3,0.7,13.5,1.4c4.7,0.7,8,3.4,9.1,8.1c1.1,4.5-1.1,8.2-4.3,10.8
	c-7.5,6.2-16.4,7.6-25.8,6.2c-3-0.5-6.1-1.6-8.7-3.2c-7.7-4.8-7.9-13.4-0.9-19.3C900,1921,905.6,1920.6,912.2,1921.1z"/>
<path class="st10" d="M896.9,1885.6c0.2-3.9,0.2-7.3,0.8-10.6c1.2-5.9,4.7-9.1,10-9.8c5-0.6,10.2,1.9,12.6,6.7
	c3.2,6.3,3.2,13,0.9,19.6c-1.8,4.9-5.5,7.8-10.9,8c-5.3,0.2-9.7-2.6-11.9-7.7C897.7,1890,897.5,1888,896.9,1885.6z"/>
<path class="st0" d="M836.6,1885.5c0.8-3.1,1.2-5.8,2.4-8c2.5-4.4,3.8-7.4,10.9-4.6c2.7,1.1,5.4,0.9,8.2-0.9c3.8-2.4,8-0.3,8.1,4.2
	c0.3,10.8,0.1,21.6-0.3,32.4c0,1.3-2,3.1-3.5,3.7c-2.8,1.2-5.9,1.8-7.6,2.2c-3.3-0.9-5.6-2-8-2.2c-10.8-0.9-9.8-0.8-9.9-11.2
	C836.8,1896.3,836.7,1891.2,836.6,1885.5z"/>
<path class="st10" d="M1130.3,1909.7c-0.9,1.2-1.8,2.5-2.3,2.4c-5.3-1.3-10.1,1.7-15.2,1.8c-4.4,0.1-6-1.2-7.2-5.5
	c-0.1-0.5-0.3-0.9-0.3-1.4c0-12.2,0-24.4,0-37.1c7.3-0.7,14-1.9,20.8,1c3.3,1.4,4.9,3.4,4.8,7.1
	C1130.6,1888.4,1130.6,1898.8,1130.3,1909.7z"/>
<path class="st11" d="M1161.2,1885.5c0.8-3.6,1.3-6.8,2.5-9.6c3.2-7.4,9.4-10.8,17.3-10.6c7.4,0.2,12.7,4.1,15.4,11
	c3.7,9.3,4.5,18.7,0.2,28c-3.6,7.9-10.1,11.7-18.4,11.1c-7.5-0.5-13.8-5.4-15.8-13.6C1161.2,1896.8,1161.5,1891.4,1161.2,1885.5z"/>
<path class="st10" d="M1055.7,1895.2c3.6-2.3,6.8-4.4,11-7c0.8,6.3,0.7,11.5,0,16.5c-0.5,3.6-9.4,9-13.2,8.6c-4-0.4-6.7-4.4-4.9-8.6
	C1050.2,1901.3,1053.1,1898.5,1055.7,1895.2z"/>
<path class="st10" d="M761,1879.2c-7.8,0-15,0-22.1,0c-1.3-10.5,12.8-17.1,20.4-12.7c3.6,2.1,5.7,5.3,5.4,9.4
	C764.6,1877.1,762.7,1878.1,761,1879.2z"/>
<path class="st10" d="M975.8,1866c4,1.5,5.8,4.2,6.8,7.6c1.1,3.8,0,5.5-4,5.7c-7.4,0.2-14.8,0.1-22.3,0.1
	C957.9,1868.8,964.5,1864.2,975.8,1866z"/>
</svg>
